<mxfile host="Electron" modified="2024-03-13T08:57:31.494Z" agent="Mozilla/5.0 (Macintosh; Intel Mac OS X 10_15_7) AppleWebKit/537.36 (KHTML, like Gecko) draw.io/24.0.4 Chrome/120.0.6099.109 Electron/28.1.0 Safari/537.36" etag="fmnAsIPzv1PYgucT5Ek-" version="24.0.4" type="device">
  <diagram name="Page-1" id="ZRe_wIOORr0k_d4isBBX">
    <mxGraphModel dx="2485" dy="1895" grid="1" gridSize="10" guides="1" tooltips="1" connect="1" arrows="1" fold="1" page="1" pageScale="1" pageWidth="1169" pageHeight="827" math="0" shadow="0">
      <root>
        <mxCell id="0" />
        <mxCell id="1" parent="0" />
        <mxCell id="I-3xDNqU13IutiKupr62-10" style="edgeStyle=none;curved=1;rounded=0;orthogonalLoop=1;jettySize=auto;html=1;exitX=0;exitY=0.5;exitDx=0;exitDy=0;fontSize=12;startSize=8;endSize=8;" parent="1" edge="1">
          <mxGeometry relative="1" as="geometry">
            <mxPoint x="-1060" y="-519" as="sourcePoint" />
            <mxPoint x="-1060" y="-519" as="targetPoint" />
          </mxGeometry>
        </mxCell>
        <mxCell id="NV7x72Zd9u3rbeVEopfi-3" value="" style="rounded=1;whiteSpace=wrap;html=1;fillColor=none;strokeWidth=3;arcSize=12;" parent="1" vertex="1">
          <mxGeometry x="-1010" y="-780" width="919.3600000000001" height="750" as="geometry" />
        </mxCell>
        <mxCell id="NV7x72Zd9u3rbeVEopfi-5" value="&lt;i&gt;&lt;b&gt;&lt;font style=&quot;font-size: 60px;&quot;&gt;Verifiable Presentation&lt;/font&gt;&lt;/b&gt;&lt;/i&gt;" style="text;html=1;align=center;verticalAlign=middle;whiteSpace=wrap;rounded=0;fontSize=16;" parent="1" vertex="1">
          <mxGeometry x="-901.1284210526316" y="-741.2903225806451" width="701.6168421052632" height="72.58064516129032" as="geometry" />
        </mxCell>
        <mxCell id="CqYlGcgU1QHX9f7NfkNa-2" value="&lt;div&gt;&lt;font size=&quot;1&quot; style=&quot;&quot;&gt;&lt;i style=&quot;font-size: 60px;&quot;&gt;Presentation Metadata&lt;/i&gt;&lt;/font&gt;&lt;/div&gt;" style="rounded=1;whiteSpace=wrap;html=1;fillColor=none;strokeWidth=3;strokeColor=#d21414;" parent="1" vertex="1">
          <mxGeometry x="-901.1284210526316" y="-634.8387096774194" width="701.6168421052632" height="145.16129032258067" as="geometry" />
        </mxCell>
        <mxCell id="NV7x72Zd9u3rbeVEopfi-1" value="&lt;div&gt;&lt;font size=&quot;1&quot; style=&quot;&quot;&gt;&lt;i style=&quot;font-size: 60px;&quot;&gt;Verifiable Credential(s)&lt;/i&gt;&lt;/font&gt;&lt;/div&gt;" style="rounded=1;whiteSpace=wrap;html=1;fillColor=none;strokeWidth=3;strokeColor=#1b17d3;" parent="1" vertex="1">
          <mxGeometry x="-901.1284210526316" y="-429.1935483870968" width="701.6168421052632" height="145.16129032258067" as="geometry" />
        </mxCell>
        <mxCell id="NV7x72Zd9u3rbeVEopfi-2" value="&lt;div&gt;&lt;font size=&quot;1&quot; style=&quot;&quot;&gt;&lt;i style=&quot;font-size: 60px;&quot;&gt;Proof(s)&lt;/i&gt;&lt;/font&gt;&lt;/div&gt;" style="rounded=1;whiteSpace=wrap;html=1;fillColor=none;strokeWidth=3;strokeColor=#146121;" parent="1" vertex="1">
          <mxGeometry x="-901.1284210526316" y="-223.5483870967742" width="701.6168421052632" height="145.16129032258067" as="geometry" />
        </mxCell>
      </root>
    </mxGraphModel>
  </diagram>
</mxfile>
